<svg xmlns="http://www.w3.org/2000/svg" viewBox="0 0 80 80">
  <path d="M11.5 14C7.925781 14 5.007813 16.914063 5 20.484375C5 20.488281 5 20.488281 5 20.492188C5 20.496094 5 20.496094 5 20.5L5 61.5C5 65.078125 7.921875 68 11.5 68L68.5 68C72.078125 68 75 65.078125 75 61.5L75 20.5C75 20.496094 75 20.496094 75 20.492188C75 20.488281 75 20.488281 75 20.484375C74.992188 16.914063 72.074219 14 68.5 14 Z M 11.5 16L68.5 16C69.445313 16 70.320313 16.289063 71.042969 16.78125L70.894531 17.050781L71.269531 17.863281L72.144531 18.050781L72.25 18.003906C72.722656 18.71875 73 19.570313 73 20.496094C73 20.496094 73 20.496094 73 20.5C72.996094 22.132813 72.199219 23.65625 70.859375 24.589844L40 46.09375L9.140625 24.589844C7.800781 23.65625 7.003906 22.132813 7 20.5C7 20.496094 7 20.496094 7 20.496094C7 19.535156 7.304688 18.652344 7.8125 17.921875L8.382813 18.003906L9.015625 17.375L8.933594 16.800781C9.660156 16.300781 10.542969 16 11.5 16 Z M 11.03125 18.394531L10.398438 19.03125L10.527344 19.917969L10.777344 20.164063L10.859375 20.222656L11.746094 20.347656L12.378906 19.71875L12.25 18.828125L12 18.578125L11.921875 18.523438 Z M 68.359375 18.40625L68.042969 18.550781L67.957031 18.609375L67.53125 19.394531L67.90625 20.210938L68.78125 20.394531L69.101563 20.25L69.183594 20.191406L69.609375 19.40625L69.234375 18.59375 Z M 14.394531 20.738281L13.761719 21.375L13.890625 22.261719L14.140625 22.511719L14.21875 22.566406L15.109375 22.695313L15.742188 22.0625L15.613281 21.171875L15.363281 20.925781L15.28125 20.867188 Z M 65 20.75L64.675781 20.894531L64.59375 20.953125L64.167969 21.738281L64.542969 22.554688L65.417969 22.742188L65.738281 22.59375L65.820313 22.535156L66.25 21.75L65.875 20.9375 Z M 17.761719 23.082031L17.125 23.71875L17.253906 24.605469L17.503906 24.855469L17.585938 24.910156L18.472656 25.039063L19.105469 24.40625L18.980469 23.519531L18.730469 23.269531L18.644531 23.214844 Z M 61.632813 23.09375L61.3125 23.238281L61.230469 23.296875L60.800781 24.082031L61.175781 24.898438L62.054688 25.085938L62.375 24.9375L62.457031 24.878906L62.886719 24.09375L62.511719 23.28125 Z M 7 25.363281C7.304688 25.679688 7.632813 25.972656 8 26.230469L11.976563 29C11.433594 29.015625 11 29.457031 11 30C11 30.550781 11.449219 31 12 31C12.550781 31 13 30.550781 13 30C13 29.890625 12.980469 29.78125 12.945313 29.675781L40 48.53125L67.054688 29.675781C67.019531 29.78125 67 29.890625 67 30C67 30.550781 67.449219 31 68 31C68.550781 31 69 30.550781 69 30C69 29.457031 68.566406 29.011719 68.023438 29L72 26.230469C72.367188 25.972656 72.695313 25.679688 73 25.363281L73 61.5C73 63.828125 71.253906 65.699219 69 65.949219C68.972656 65.417969 68.53125 65 68 65C67.449219 65 67 65.449219 67 66L13 66C13 65.449219 12.550781 65 12 65C11.46875 65 11.027344 65.417969 11 65.949219C8.746094 65.699219 7 63.828125 7 61.5 Z M 21.125 25.425781L20.488281 26.0625L20.617188 26.949219L20.867188 27.199219L20.949219 27.253906L21.835938 27.382813L22.46875 26.75L22.34375 25.863281L22.09375 25.613281L22.011719 25.558594 Z M 58.269531 25.4375L57.949219 25.582031L57.867188 25.640625L57.4375 26.429688L57.8125 27.242188L58.691406 27.429688L59.011719 27.28125L59.09375 27.222656L59.519531 26.4375L59.144531 25.625 Z M 24.488281 27.769531L23.855469 28.40625L23.984375 29.292969L24.230469 29.542969L24.3125 29.597656L25.199219 29.730469L25.832031 29.09375L25.703125 28.207031L25.457031 27.957031L25.375 27.902344 Z M 54.90625 27.78125L54.585938 27.925781L54.503906 27.984375L54.078125 28.773438L54.453125 29.589844L55.328125 29.773438L55.644531 29.625L55.730469 29.570313L56.15625 28.78125L55.78125 27.96875 Z M 27.851563 30.117188L27.21875 30.75L27.34375 31.636719L27.59375 31.886719L27.675781 31.941406L28.5625 32.074219L29.199219 31.4375L29.066406 30.550781L28.820313 30.300781L28.738281 30.246094 Z M 51.542969 30.125L51.222656 30.273438L51.140625 30.328125L50.714844 31.117188L51.089844 31.933594L51.964844 32.121094L52.28125 31.96875L52.363281 31.914063L52.792969 31.125L52.417969 30.3125 Z M 31.214844 32.460938L30.578125 33.09375L30.707031 33.980469L30.957031 34.230469L31.042969 34.285156L31.925781 34.417969L32.5625 33.78125L32.433594 32.894531L32.183594 32.644531L32.101563 32.589844 Z M 48.179688 32.46875L47.859375 32.617188L47.777344 32.671875L47.347656 33.460938L47.722656 34.277344L48.597656 34.464844L48.921875 34.3125L49 34.257813L49.429688 33.46875L49.054688 32.65625 Z M 12 33C11.449219 33 11 33.449219 11 34C11 34.550781 11.449219 35 12 35C12.550781 35 13 34.550781 13 34C13 33.449219 12.550781 33 12 33 Z M 68 33C67.449219 33 67 33.449219 67 34C67 34.550781 67.449219 35 68 35C68.550781 35 69 34.550781 69 34C69 33.449219 68.550781 33 68 33 Z M 34.578125 34.804688L33.945313 35.4375L34.074219 36.328125L34.324219 36.574219L34.40625 36.628906L35.292969 36.761719L35.921875 36.125L35.796875 35.238281L35.546875 34.988281L35.464844 34.933594 Z M 44.8125 34.8125L44.496094 34.960938L44.410156 35.019531L43.984375 35.808594L44.359375 36.621094L45.234375 36.808594L45.558594 36.660156L45.640625 36.601563L46.066406 35.8125L45.691406 35 Z M 12 37C11.449219 37 11 37.449219 11 38C11 38.550781 11.449219 39 12 39C12.550781 39 13 38.550781 13 38C13 37.449219 12.550781 37 12 37 Z M 68 37C67.449219 37 67 37.449219 67 38C67 38.550781 67.449219 39 68 39C68.550781 39 69 38.550781 69 38C69 37.449219 68.550781 37 68 37 Z M 37.941406 37.148438L37.308594 37.78125L37.4375 38.671875L37.6875 38.917969L37.765625 38.976563L38.65625 39.105469L39.289063 38.46875L39.160156 37.582031L38.910156 37.335938L38.828125 37.277344 Z M 41.453125 37.15625L41.128906 37.308594L41.046875 37.363281L40.621094 38.152344L40.996094 38.964844L41.875 39.152344L42.191406 39.003906L42.277344 38.949219L42.703125 38.160156L42.328125 37.34375 Z M 12 41C11.449219 41 11 41.449219 11 42C11 42.550781 11.449219 43 12 43C12.550781 43 13 42.550781 13 42C13 41.449219 12.550781 41 12 41 Z M 68 41C67.449219 41 67 41.449219 67 42C67 42.550781 67.449219 43 68 43C68.550781 43 69 42.550781 69 42C69 41.449219 68.550781 41 68 41 Z M 12 45C11.449219 45 11 45.449219 11 46C11 46.550781 11.449219 47 12 47C12.550781 47 13 46.550781 13 46C13 45.449219 12.550781 45 12 45 Z M 68 45C67.449219 45 67 45.449219 67 46C67 46.550781 67.449219 47 68 47C68.550781 47 69 46.550781 69 46C69 45.449219 68.550781 45 68 45 Z M 12 49C11.449219 49 11 49.449219 11 50C11 50.550781 11.449219 51 12 51C12.550781 51 13 50.550781 13 50C13 49.449219 12.550781 49 12 49 Z M 68 49C67.449219 49 67 49.449219 67 50C67 50.550781 67.449219 51 68 51C68.550781 51 69 50.550781 69 50C69 49.449219 68.550781 49 68 49 Z M 12 53C11.449219 53 11 53.449219 11 54C11 54.550781 11.449219 55 12 55C12.550781 55 13 54.550781 13 54C13 53.449219 12.550781 53 12 53 Z M 68 53C67.449219 53 67 53.449219 67 54C67 54.550781 67.449219 55 68 55C68.550781 55 69 54.550781 69 54C69 53.449219 68.550781 53 68 53 Z M 12 57C11.449219 57 11 57.449219 11 58C11 58.550781 11.449219 59 12 59C12.550781 59 13 58.550781 13 58C13 57.449219 12.550781 57 12 57 Z M 68 57C67.449219 57 67 57.449219 67 58C67 58.550781 67.449219 59 68 59C68.550781 59 69 58.550781 69 58C69 57.449219 68.550781 57 68 57 Z M 12 61C11.449219 61 11 61.449219 11 62C11 62.550781 11.449219 63 12 63C12.550781 63 13 62.550781 13 62C13 61.449219 12.550781 61 12 61 Z M 68 61C67.449219 61 67 61.449219 67 62C67 62.550781 67.449219 63 68 63C68.550781 63 69 62.550781 69 62C69 61.449219 68.550781 61 68 61Z" fill="#5B5B5B" />
</svg>