<svg xmlns="http://www.w3.org/2000/svg" viewBox="0 0 80 80">
  <path d="M72.6875 12.746094L70.421875 14.089844C68.121094 15.453125 65.574219 16.433594 62.875 17.015625C60.34375 14.546875 56.90625 12.992188 53.09375 12.992188C45.339844 12.992188 39.027344 19.304688 39.027344 27.0625C39.027344 27.675781 39.152344 28.257813 39.230469 28.855469C29.160156 28.011719 20.238281 23.152344 14.203125 15.753906L13.292969 14.632813L12.566406 15.882813C11.355469 17.960938 10.660156 20.378906 10.660156 22.953125C10.660156 26.496094 12 29.71875 14.164063 32.195313C13.429688 31.953125 12.707031 31.691406 12.042969 31.324219L10.558594 30.496094L10.558594 32.359375C10.558594 37.597656 13.457031 42.128906 17.714844 44.546875C17.25 44.515625 16.777344 44.503906 16.328125 44.417969L14.671875 44.101563L15.1875 45.703125C16.714844 50.472656 20.773438 53.960938 25.730469 55.007813C21.789063 57.539063 17.152344 59.066406 12.117188 59.066406C11.101563 59.066406 10.101563 59.011719 9.117188 58.890625L4.796875 58.375L8.460938 60.730469C14.398438 64.535156 21.457031 66.753906 29.03125 66.753906C41.324219 66.753906 50.921875 61.632813 57.382813 54.300781C63.84375 46.972656 67.207031 37.464844 67.207031 28.578125C67.207031 28.15625 67.195313 27.742188 67.183594 27.328125C69.640625 25.472656 71.808594 23.238281 73.523438 20.675781L75.441406 17.804688L72.285156 19.207031C71.105469 19.734375 69.898438 20.148438 68.660156 20.484375C70.0625 18.984375 71.234375 17.285156 71.886719 15.253906 Z M 53.09375 14.992188C56.570313 14.992188 59.703125 16.457031 61.90625 18.804688L62.28125 19.207031L62.828125 19.101563C64.882813 18.695313 66.8125 17.984375 68.671875 17.148438C67.695313 18.792969 66.492188 20.253906 64.824219 21.253906L64.027344 21.730469L64.78125 23.234375L65.480469 23.152344C66.9375 22.972656 68.328125 22.664063 69.679688 22.269531C68.4375 23.667969 67.101563 24.980469 65.585938 26.078125L65.152344 26.390625L65.171875 26.929688C65.195313 27.476563 65.207031 28.027344 65.207031 28.578125C65.207031 36.957031 62.003906 46.039063 55.882813 52.980469C49.761719 59.921875 40.773438 64.753906 29.03125 64.753906C23.292969 64.753906 17.902344 63.367188 13.085938 60.984375C19.054688 60.773438 24.5625 58.710938 28.964844 55.261719L31.175781 53.527344L28.363281 53.472656C23.660156 53.386719 19.742188 50.542969 17.828125 46.558594C18.085938 46.574219 18.332031 46.632813 18.59375 46.632813C19.878906 46.632813 21.125 46.460938 22.304688 46.140625L26.375 45.023438L22.234375 44.191406C17.1875 43.179688 13.441406 38.96875 12.808594 33.785156C14.265625 34.355469 15.800781 34.777344 17.441406 34.828125L20.9375 34.941406L18.03125 33C14.792969 30.835938 12.660156 27.148438 12.660156 22.953125C12.660156 21.21875 13.117188 19.621094 13.769531 18.132813C20.363281 25.570313 29.726563 30.507813 40.3125 31.035156L41.636719 31.105469L41.339844 29.8125C41.132813 28.929688 41.027344 28.007813 41.027344 27.0625C41.027344 20.386719 46.421875 14.992188 53.09375 14.992188 Z M 53 17C52.449219 17 52 17.449219 52 18C52 18.550781 52.449219 19 53 19C53.550781 19 54 18.550781 54 18C54 17.449219 53.550781 17 53 17 Z M 48.472656 18.203125C48.308594 18.210938 48.144531 18.253906 48 18.339844C47.519531 18.617188 47.355469 19.226563 47.632813 19.703125C47.910156 20.183594 48.519531 20.347656 49 20.074219C49.226563 19.941406 49.394531 19.722656 49.464844 19.464844C49.535156 19.207031 49.5 18.933594 49.363281 18.703125C49.183594 18.386719 48.839844 18.195313 48.472656 18.203125 Z M 45.15625 21.5C44.820313 21.519531 44.511719 21.707031 44.339844 22C44.207031 22.230469 44.171875 22.503906 44.238281 22.757813C44.308594 23.015625 44.476563 23.234375 44.703125 23.367188C45.183594 23.644531 45.792969 23.476563 46.070313 23C46.347656 22.523438 46.183594 21.910156 45.703125 21.636719C45.539063 21.539063 45.347656 21.492188 45.15625 21.5 Z M 44 26C43.449219 26 43 26.449219 43 27C43 27.550781 43.449219 28 44 28C44.550781 28 45 27.550781 45 27C45 26.449219 44.550781 26 44 26 Z M 24 35C23.449219 35 23 35.449219 23 36C23 36.550781 23.449219 37 24 37C24.550781 37 25 36.550781 25 36C25 35.449219 24.550781 35 24 35 Z M 28 36C27.449219 36 27 36.449219 27 37C27 37.550781 27.449219 38 28 38C28.550781 38 29 37.550781 29 37C29 36.449219 28.550781 36 28 36 Z M 32 37C31.449219 37 31 37.449219 31 38C31 38.550781 31.449219 39 32 39C32.550781 39 33 38.550781 33 38C33 37.449219 32.550781 37 32 37 Z M 29 44C28.449219 44 28 44.449219 28 45C28 45.550781 28.449219 46 29 46C29.550781 46 30 45.550781 30 45C30 44.449219 29.550781 44 29 44 Z M 33 44C32.449219 44 32 44.449219 32 45C32 45.550781 32.449219 46 33 46C33.550781 46 34 45.550781 34 45C34 44.449219 33.550781 44 33 44 Z M 34 51C33.449219 51 33 51.449219 33 52C33 52.550781 33.449219 53 34 53C34.550781 53 35 52.550781 35 52C35 51.449219 34.550781 51 34 51Z" fill="#5B5B5B" />
</svg>